<?xml version="1.0" encoding="UTF-8" standalone="no"?> <!-- Created with Vectornator for iOS (http://vectornator.io/) --><!DOCTYPE svg PUBLIC "-//W3C//DTD SVG 1.1//EN" "http://www.w3.org/Graphics/SVG/1.1/DTD/svg11.dtd">
<svg style="fill-rule:evenodd;clip-rule:evenodd;stroke-linecap:round;stroke-linejoin:round;" xmlns:vectornator="http://vectornator.io" xmlns:xlink="http://www.w3.org/1999/xlink" xmlns="http://www.w3.org/2000/svg" xml:space="preserve" version="1.1" viewBox="0 0 820 430">
<metadata>
<vectornator:setting key="RulersVisible" value="1"/>
<vectornator:setting key="Units" value="Pixels"/>
<vectornator:setting key="DynamicGuides" value="1"/>
<vectornator:setting key="GuidesVisible" value="1"/>
<vectornator:setting key="CMYKEnabledKey" value="0"/>
<vectornator:setting key="SnapToGuides" value="1"/>
<vectornator:setting key="GridSpacing" value="36"/>
</metadata>
<defs/>
<g id="Layer 1 copy" vectornator:layerName="Layer 1 copy">
<g opacity="1">
<path d="M65.2079+162.547L0+98.1897L65.2079+33.8324L106.034+33.8324L40.5423+98.1897L106.034+162.547L65.2079+162.547Z" fill-rule="evenodd" fill="#000000" opacity="1"/>
<path d="M182.027+54.3399L182.027+126.399C182.027+131.285+183.171+134.782+185.458+136.908C187.735+139.034+191.638+140.102+197.148+140.102L213.686+140.102L213.686+162.547L192.423+162.547C180.298+162.547+170.999+159.712+164.544+154.042C158.089+148.372+154.857+139.157+154.857+126.399L154.857+54.3399L139.5+54.3399L139.5+32.3677L154.857+32.3677L154.857+0L182.027+0L182.027+32.3677L213.686+32.3677L213.686+54.3399L182.027+54.3399Z" fill-rule="evenodd" fill="#000000" opacity="1"/>
<path d="M305.657+94.7404C305.657+81.6705+308.37+70.0938+313.804+60.0101C319.238+49.9265+326.637+42.0922+336.012+36.4975C345.387+30.9123+355.745+28.115+367.085+28.115C377.32+28.115+386.26+30.1185+393.896+34.1349C401.532+38.1513+407.637+43.1601+412.211+49.1422L412.211+30.2413L439.381+30.2413L439.381+160.421L412.211+160.421L412.211+141.047C407.637+147.19+401.418+152.312+393.546+156.404C385.665+160.496+376.687+162.547+366.613+162.547C355.423+162.547+345.189+159.674+335.899+153.919C326.6+148.173+319.238+140.14+313.804+129.82C308.37+119.51+305.657+107.81+305.657+94.7404ZM412.211+96.158C412.211+87.1801+410.359+79.3835+406.654+72.7682C402.949+66.1529+398.111+61.1159+392.129+57.6475C386.137+54.1792+379.683+52.4498+372.755+52.4498C365.819+52.4498+359.364+54.1415+353.382+57.5247C347.391+60.9173+342.552+65.8788+338.847+72.4091C335.143+78.9488+333.3+86.7076+333.3+95.6854C333.3+104.663+335.143+112.535+338.847+119.311C342.552+126.087+347.428+131.238+353.495+134.782C359.563+138.326+365.979+140.102+372.755+140.102C379.683+140.102+386.137+138.373+392.129+134.905C398.111+131.436+402.949+126.361+406.654+119.661C410.359+112.97+412.211+105.136+412.211+96.158Z" fill-rule="evenodd" fill="#000000" opacity="1"/>
<path d="M616.633+30.2413C626.868+30.2413+636.044+32.3677+644.152+36.6204C652.27+40.873+658.612+47.1765+663.176+55.5212C667.741+63.8659+670.028+73.9495+670.028+85.7625L670.028+162.547L643.33+162.547L643.33+89.7789C643.33+78.1266+640.419+69.1864+634.589+62.9587C628.758+56.7403+620.81+53.6311+610.726+53.6311C600.643+53.6311+592.648+56.7403+586.741+62.9587C580.835+69.1864+577.886+78.1266+577.886+89.7789L577.886+162.547L550.952+162.547L550.952+32.3677L577.886+32.3677L577.886+47.2521C582.299+41.8936+587.922+37.7261+594.774+34.7303C601.625+31.7345+608.912+30.2413+616.633+30.2413Z" fill-rule="evenodd" fill="#000000" opacity="1"/>
</g>
<g opacity="1">
<path d="M186.006+257.42L186.006+329.479C186.006+334.365+187.14+337.871+189.427+339.998C191.714+342.124+195.607+343.182+201.126+343.182L217.665+343.182L217.665+365.627L196.401+365.627C184.267+365.627+174.977+362.792+168.523+357.122C162.058+351.451+158.836+342.237+158.836+329.479L158.836+257.42L143.479+257.42L143.479+235.448L158.836+235.448L158.836+203.08L186.006+203.08L186.006+235.448L217.665+235.448L217.665+257.42L186.006+257.42Z" fill-rule="evenodd" fill="#000000" opacity="1"/>
<path d="M394.86+297.348C394.86+302.234+394.539+306.647+393.915+310.578L294.449+310.578C295.234+320.974+299.089+329.328+306.026+335.622C312.953+341.926+321.459+345.072+331.542+345.072C346.03+345.072+356.264+339.015+362.256+326.88L391.316+326.88C387.375+338.854+380.25+348.654+369.93+356.3C359.61+363.935+346.814+367.753+331.542+367.753C319.096+367.753+307.954+364.956+298.107+359.371C288.259+353.776+280.548+345.904+274.953+335.745C269.358+325.586+266.571+313.811+266.571+300.419C266.571+287.037+269.283+275.262+274.717+265.103C280.151+254.944+287.787+247.109+297.634+241.59C307.481+236.081+318.784+233.321+331.542+233.321C343.828+233.321+354.771+236.005+364.382+241.354C373.984+246.713+381.469+254.235+386.827+263.922C392.176+273.608+394.86+284.75+394.86+297.348ZM366.745+288.842C366.584+278.92+363.04+270.972+356.113+264.98C349.177+258.998+340.596+256.002+330.361+256.002C321.062+256.002+313.114+258.96+306.499+264.867C299.883+270.773+295.942+278.768+294.686+288.842L366.745+288.842Z" fill-rule="evenodd" fill="#000000" opacity="1"/>
<path d="M481.331+190.794L481.331+365.627L454.398+365.627L454.398+190.794L481.331+190.794Z" fill-rule="evenodd" fill="#000000" opacity="1"/>
<path d="M667.032+237.338L587.176+428.709L559.297+428.709L585.758+365.391L534.49+237.338L564.495+237.338L601.115+336.567L639.153+237.338L667.032+237.338Z" fill-rule="evenodd" fill="#000000" opacity="1"/>
<path d="M707.114+236.912L747.94+236.912L813.147+301.27L747.94+365.627L707.114+365.627L772.605+301.27L707.114+236.912Z" fill-rule="evenodd" fill="#000000" opacity="1"/>
</g>
</g>
</svg>
